<mxfile host="app.diagrams.net" modified="2024-01-30T23:08:15.463Z" agent="Mozilla/5.0 (Windows NT 10.0; Win64; x64) AppleWebKit/537.36 (KHTML, like Gecko) Chrome/120.0.0.0 Safari/537.36" etag="kvQ6mKSdje0dlVtYFqGb" version="23.0.2" type="device">
  <diagram name="Page-1" id="b520641d-4fe3-3701-9064-5fc419738815">
    <mxGraphModel dx="1434" dy="746" grid="1" gridSize="10" guides="1" tooltips="1" connect="1" arrows="1" fold="1" page="1" pageScale="1" pageWidth="1100" pageHeight="850" background="none" math="0" shadow="0">
      <root>
        <mxCell id="0" />
        <mxCell id="1" parent="0" />
        <mxCell id="ko79yBqlg5gSlIgGx1Cm-1" value="MEF" style="swimlane;whiteSpace=wrap;html=1;" vertex="1" parent="1">
          <mxGeometry x="540" y="60" width="200" height="185" as="geometry" />
        </mxCell>
        <mxCell id="ko79yBqlg5gSlIgGx1Cm-21" value="o_unsignedOutput[7:0]" style="text;html=1;strokeColor=none;fillColor=none;align=center;verticalAlign=middle;whiteSpace=wrap;rounded=0;" vertex="1" parent="ko79yBqlg5gSlIgGx1Cm-1">
          <mxGeometry x="110" y="140" width="60" height="30" as="geometry" />
        </mxCell>
        <mxCell id="ko79yBqlg5gSlIgGx1Cm-65" value="i_reset" style="text;html=1;strokeColor=none;fillColor=none;align=center;verticalAlign=middle;whiteSpace=wrap;rounded=0;" vertex="1" parent="ko79yBqlg5gSlIgGx1Cm-1">
          <mxGeometry y="115" width="50" height="30" as="geometry" />
        </mxCell>
        <mxCell id="ko79yBqlg5gSlIgGx1Cm-79" value="" style="shape=flexArrow;endArrow=classic;html=1;rounded=0;endWidth=0;endSize=4.91875;" edge="1" parent="ko79yBqlg5gSlIgGx1Cm-1">
          <mxGeometry width="50" height="50" relative="1" as="geometry">
            <mxPoint y="165" as="sourcePoint" />
            <mxPoint x="20" y="165" as="targetPoint" />
          </mxGeometry>
        </mxCell>
        <mxCell id="ko79yBqlg5gSlIgGx1Cm-83" value="i_bclk" style="text;html=1;strokeColor=none;fillColor=none;align=center;verticalAlign=middle;whiteSpace=wrap;rounded=0;" vertex="1" parent="ko79yBqlg5gSlIgGx1Cm-1">
          <mxGeometry x="10" y="145" width="60" height="30" as="geometry" />
        </mxCell>
        <mxCell id="ko79yBqlg5gSlIgGx1Cm-84" value="i_ech[23:0]" style="text;html=1;strokeColor=none;fillColor=none;align=center;verticalAlign=middle;whiteSpace=wrap;rounded=0;" vertex="1" parent="ko79yBqlg5gSlIgGx1Cm-1">
          <mxGeometry x="10" y="45" width="60" height="30" as="geometry" />
        </mxCell>
        <mxCell id="ko79yBqlg5gSlIgGx1Cm-85" value="o_bufferParam[7:0]" style="text;html=1;strokeColor=none;fillColor=none;align=center;verticalAlign=middle;whiteSpace=wrap;rounded=0;" vertex="1" parent="ko79yBqlg5gSlIgGx1Cm-1">
          <mxGeometry x="110" y="40" width="60" height="30" as="geometry" />
        </mxCell>
        <mxCell id="ko79yBqlg5gSlIgGx1Cm-137" value="i_bufferParam[7:0]" style="text;html=1;strokeColor=none;fillColor=none;align=center;verticalAlign=middle;whiteSpace=wrap;rounded=0;" vertex="1" parent="ko79yBqlg5gSlIgGx1Cm-1">
          <mxGeometry x="30" y="85" width="60" height="30" as="geometry" />
        </mxCell>
        <mxCell id="ko79yBqlg5gSlIgGx1Cm-138" value="o_reset" style="text;html=1;strokeColor=none;fillColor=none;align=center;verticalAlign=middle;whiteSpace=wrap;rounded=0;" vertex="1" parent="ko79yBqlg5gSlIgGx1Cm-1">
          <mxGeometry x="150" y="85" width="50" height="30" as="geometry" />
        </mxCell>
        <mxCell id="ko79yBqlg5gSlIgGx1Cm-31" style="edgeStyle=orthogonalEdgeStyle;rounded=0;orthogonalLoop=1;jettySize=auto;html=1;exitX=1;exitY=0.5;exitDx=0;exitDy=0;" edge="1" parent="1" source="ko79yBqlg5gSlIgGx1Cm-18">
          <mxGeometry relative="1" as="geometry">
            <mxPoint x="739.8888888888889" y="385" as="targetPoint" />
          </mxGeometry>
        </mxCell>
        <mxCell id="ko79yBqlg5gSlIgGx1Cm-18" value="Compteur" style="swimlane;whiteSpace=wrap;html=1;" vertex="1" parent="1">
          <mxGeometry x="540" y="285" width="200" height="200" as="geometry" />
        </mxCell>
        <mxCell id="ko79yBqlg5gSlIgGx1Cm-27" value="i_unsignedOutput[7:0]" style="text;html=1;strokeColor=none;fillColor=none;align=center;verticalAlign=middle;whiteSpace=wrap;rounded=0;" vertex="1" parent="ko79yBqlg5gSlIgGx1Cm-18">
          <mxGeometry x="30" y="55" width="60" height="30" as="geometry" />
        </mxCell>
        <mxCell id="ko79yBqlg5gSlIgGx1Cm-56" value="o_unsignedOutput[7:0]" style="text;html=1;strokeColor=none;fillColor=none;align=center;verticalAlign=middle;whiteSpace=wrap;rounded=0;" vertex="1" parent="ko79yBqlg5gSlIgGx1Cm-18">
          <mxGeometry x="100" y="95" width="60" height="30" as="geometry" />
        </mxCell>
        <mxCell id="ko79yBqlg5gSlIgGx1Cm-60" value="i_en" style="text;html=1;strokeColor=none;fillColor=none;align=center;verticalAlign=middle;whiteSpace=wrap;rounded=0;" vertex="1" parent="ko79yBqlg5gSlIgGx1Cm-18">
          <mxGeometry x="-10" y="95" width="50" height="30" as="geometry" />
        </mxCell>
        <mxCell id="ko79yBqlg5gSlIgGx1Cm-64" value="i_reset" style="text;html=1;strokeColor=none;fillColor=none;align=center;verticalAlign=middle;whiteSpace=wrap;rounded=0;" vertex="1" parent="ko79yBqlg5gSlIgGx1Cm-18">
          <mxGeometry y="140" width="50" height="30" as="geometry" />
        </mxCell>
        <mxCell id="ko79yBqlg5gSlIgGx1Cm-78" value="" style="shape=flexArrow;endArrow=classic;html=1;rounded=0;endWidth=3.125;endSize=4.91875;" edge="1" parent="ko79yBqlg5gSlIgGx1Cm-18">
          <mxGeometry width="50" height="50" relative="1" as="geometry">
            <mxPoint y="180" as="sourcePoint" />
            <mxPoint x="20" y="180" as="targetPoint" />
          </mxGeometry>
        </mxCell>
        <mxCell id="ko79yBqlg5gSlIgGx1Cm-82" value="i_bclk" style="text;html=1;strokeColor=none;fillColor=none;align=center;verticalAlign=middle;whiteSpace=wrap;rounded=0;" vertex="1" parent="ko79yBqlg5gSlIgGx1Cm-18">
          <mxGeometry x="10" y="160" width="60" height="30" as="geometry" />
        </mxCell>
        <mxCell id="ko79yBqlg5gSlIgGx1Cm-20" value="Buffer" style="swimlane;whiteSpace=wrap;html=1;" vertex="1" parent="1">
          <mxGeometry x="540" y="530" width="210" height="200" as="geometry" />
        </mxCell>
        <mxCell id="ko79yBqlg5gSlIgGx1Cm-40" value="i_unsignedOutput[7:0]" style="text;html=1;strokeColor=none;fillColor=none;align=center;verticalAlign=middle;whiteSpace=wrap;rounded=0;" vertex="1" parent="ko79yBqlg5gSlIgGx1Cm-20">
          <mxGeometry x="40" y="70" width="60" height="30" as="geometry" />
        </mxCell>
        <mxCell id="ko79yBqlg5gSlIgGx1Cm-57" value="o_bufferParam[7:0]" style="text;html=1;strokeColor=none;fillColor=none;align=center;verticalAlign=middle;whiteSpace=wrap;rounded=0;" vertex="1" parent="ko79yBqlg5gSlIgGx1Cm-20">
          <mxGeometry x="120" y="130" width="60" height="30" as="geometry" />
        </mxCell>
        <mxCell id="ko79yBqlg5gSlIgGx1Cm-62" value="i_reset" style="text;html=1;strokeColor=none;fillColor=none;align=center;verticalAlign=middle;whiteSpace=wrap;rounded=0;" vertex="1" parent="ko79yBqlg5gSlIgGx1Cm-20">
          <mxGeometry y="130" width="50" height="30" as="geometry" />
        </mxCell>
        <mxCell id="ko79yBqlg5gSlIgGx1Cm-67" value="" style="shape=flexArrow;endArrow=classic;html=1;rounded=0;endWidth=2.727272727272727;endSize=6.727272727272727;" edge="1" parent="ko79yBqlg5gSlIgGx1Cm-20">
          <mxGeometry width="50" height="50" relative="1" as="geometry">
            <mxPoint y="190" as="sourcePoint" />
            <mxPoint x="20" y="190" as="targetPoint" />
          </mxGeometry>
        </mxCell>
        <mxCell id="ko79yBqlg5gSlIgGx1Cm-80" value="i_bclk" style="text;html=1;strokeColor=none;fillColor=none;align=center;verticalAlign=middle;whiteSpace=wrap;rounded=0;" vertex="1" parent="ko79yBqlg5gSlIgGx1Cm-20">
          <mxGeometry x="10" y="170" width="60" height="30" as="geometry" />
        </mxCell>
        <mxCell id="ko79yBqlg5gSlIgGx1Cm-34" value="" style="shape=waypoint;sketch=0;fillStyle=solid;size=6;pointerEvents=1;points=[];fillColor=none;resizable=0;rotatable=0;perimeter=centerPerimeter;snapToPoint=1;" vertex="1" parent="1">
          <mxGeometry x="730" y="395" width="20" height="20" as="geometry" />
        </mxCell>
        <mxCell id="ko79yBqlg5gSlIgGx1Cm-35" value="" style="line;strokeWidth=2;html=1;" vertex="1" parent="1">
          <mxGeometry x="740" y="400" width="10" height="10" as="geometry" />
        </mxCell>
        <mxCell id="ko79yBqlg5gSlIgGx1Cm-36" value="" style="endArrow=oval;html=1;rounded=0;entryX=0.383;entryY=0.656;entryDx=0;entryDy=0;entryPerimeter=0;exitX=0.694;exitY=0.611;exitDx=0;exitDy=0;exitPerimeter=0;endFill=1;" edge="1" parent="1" target="ko79yBqlg5gSlIgGx1Cm-34">
          <mxGeometry width="50" height="50" relative="1" as="geometry">
            <mxPoint x="540" y="625" as="sourcePoint" />
            <mxPoint x="550" y="435" as="targetPoint" />
            <Array as="points">
              <mxPoint x="500" y="625" />
              <mxPoint x="500" y="505" />
              <mxPoint x="780" y="505" />
              <mxPoint x="780" y="405" />
            </Array>
          </mxGeometry>
        </mxCell>
        <mxCell id="ko79yBqlg5gSlIgGx1Cm-15" value="o_param[7:0]" style="text;html=1;strokeColor=none;fillColor=none;align=center;verticalAlign=middle;whiteSpace=wrap;rounded=0;" vertex="1" parent="1">
          <mxGeometry x="1000" y="95" width="60" height="30" as="geometry" />
        </mxCell>
        <mxCell id="ko79yBqlg5gSlIgGx1Cm-13" value="i_en" style="text;html=1;strokeColor=none;fillColor=none;align=center;verticalAlign=middle;whiteSpace=wrap;rounded=0;" vertex="1" parent="1">
          <mxGeometry x="10" y="375" width="50" height="30" as="geometry" />
        </mxCell>
        <mxCell id="ko79yBqlg5gSlIgGx1Cm-14" value="i_ech[23:0]" style="text;html=1;strokeColor=none;fillColor=none;align=center;verticalAlign=middle;whiteSpace=wrap;rounded=0;" vertex="1" parent="1">
          <mxGeometry x="20" y="95" width="60" height="30" as="geometry" />
        </mxCell>
        <mxCell id="ko79yBqlg5gSlIgGx1Cm-47" value="" style="endArrow=oval;html=1;rounded=0;endFill=1;" edge="1" parent="1">
          <mxGeometry width="50" height="50" relative="1" as="geometry">
            <mxPoint x="20" y="680" as="sourcePoint" />
            <mxPoint x="540" y="680" as="targetPoint" />
          </mxGeometry>
        </mxCell>
        <mxCell id="ko79yBqlg5gSlIgGx1Cm-50" value="" style="endArrow=oval;html=1;rounded=0;endFill=1;" edge="1" parent="1">
          <mxGeometry width="50" height="50" relative="1" as="geometry">
            <mxPoint x="420" y="680" as="sourcePoint" />
            <mxPoint x="540" y="445" as="targetPoint" />
            <Array as="points">
              <mxPoint x="420" y="445" />
            </Array>
          </mxGeometry>
        </mxCell>
        <mxCell id="ko79yBqlg5gSlIgGx1Cm-51" value="i_reset" style="text;html=1;strokeColor=none;fillColor=none;align=center;verticalAlign=middle;whiteSpace=wrap;rounded=0;" vertex="1" parent="1">
          <mxGeometry x="20" y="650" width="50" height="30" as="geometry" />
        </mxCell>
        <mxCell id="ko79yBqlg5gSlIgGx1Cm-52" value="" style="endArrow=oval;html=1;rounded=0;endFill=1;" edge="1" parent="1">
          <mxGeometry width="50" height="50" relative="1" as="geometry">
            <mxPoint x="420" y="445" as="sourcePoint" />
            <mxPoint x="540" y="205" as="targetPoint" />
            <Array as="points">
              <mxPoint x="420" y="205" />
            </Array>
          </mxGeometry>
        </mxCell>
        <mxCell id="ko79yBqlg5gSlIgGx1Cm-53" value="." style="endArrow=oval;html=1;rounded=0;exitX=0.25;exitY=1;exitDx=0;exitDy=0;endFill=1;" edge="1" parent="1" source="ko79yBqlg5gSlIgGx1Cm-13">
          <mxGeometry width="50" height="50" relative="1" as="geometry">
            <mxPoint x="300" y="560" as="sourcePoint" />
            <mxPoint x="540" y="405" as="targetPoint" />
          </mxGeometry>
        </mxCell>
        <mxCell id="ko79yBqlg5gSlIgGx1Cm-54" value="" style="endArrow=oval;html=1;rounded=0;endFill=1;" edge="1" parent="1">
          <mxGeometry width="50" height="50" relative="1" as="geometry">
            <mxPoint x="20" y="125" as="sourcePoint" />
            <mxPoint x="540" y="125" as="targetPoint" />
          </mxGeometry>
        </mxCell>
        <mxCell id="ko79yBqlg5gSlIgGx1Cm-55" value="" style="endArrow=oval;startArrow=oval;html=1;rounded=0;startFill=1;endFill=1;" edge="1" parent="1">
          <mxGeometry width="50" height="50" relative="1" as="geometry">
            <mxPoint x="740" y="205" as="sourcePoint" />
            <mxPoint x="540" y="365" as="targetPoint" />
            <Array as="points">
              <mxPoint x="780" y="205" />
              <mxPoint x="780" y="265" />
              <mxPoint x="500" y="265" />
              <mxPoint x="500" y="365" />
            </Array>
          </mxGeometry>
        </mxCell>
        <mxCell id="ko79yBqlg5gSlIgGx1Cm-59" value="" style="endArrow=oval;startArrow=oval;html=1;rounded=0;endFill=1;startFill=1;entryX=1;entryY=0.75;entryDx=0;entryDy=0;" edge="1" parent="1" target="ko79yBqlg5gSlIgGx1Cm-20">
          <mxGeometry width="50" height="50" relative="1" as="geometry">
            <mxPoint x="540" y="165" as="sourcePoint" />
            <mxPoint x="750" y="925" as="targetPoint" />
            <Array as="points">
              <mxPoint x="380" y="165" />
              <mxPoint x="380" y="750" />
              <mxPoint x="780" y="750" />
              <mxPoint x="780" y="680" />
            </Array>
          </mxGeometry>
        </mxCell>
        <mxCell id="ko79yBqlg5gSlIgGx1Cm-86" value="" style="endArrow=oval;startArrow=oval;html=1;rounded=0;startFill=1;endFill=1;" edge="1" parent="1">
          <mxGeometry width="50" height="50" relative="1" as="geometry">
            <mxPoint x="740" y="125" as="sourcePoint" />
            <mxPoint x="1070" y="125" as="targetPoint" />
          </mxGeometry>
        </mxCell>
        <mxCell id="ko79yBqlg5gSlIgGx1Cm-139" value="" style="endArrow=oval;html=1;rounded=0;entryX=1;entryY=0.5;entryDx=0;entryDy=0;endFill=1;startArrow=oval;startFill=1;" edge="1" parent="1" target="ko79yBqlg5gSlIgGx1Cm-138">
          <mxGeometry width="50" height="50" relative="1" as="geometry">
            <mxPoint x="420" y="210" as="sourcePoint" />
            <mxPoint x="460" y="290" as="targetPoint" />
            <Array as="points">
              <mxPoint x="320" y="210" />
              <mxPoint x="320" y="20" />
              <mxPoint x="800" y="20" />
              <mxPoint x="800" y="160" />
            </Array>
          </mxGeometry>
        </mxCell>
        <mxCell id="ko79yBqlg5gSlIgGx1Cm-140" value="" style="endArrow=oval;html=1;rounded=0;endFill=1;" edge="1" parent="1">
          <mxGeometry width="50" height="50" relative="1" as="geometry">
            <mxPoint x="320" y="210" as="sourcePoint" />
            <mxPoint x="420" y="450" as="targetPoint" />
            <Array as="points">
              <mxPoint x="320" y="450" />
            </Array>
          </mxGeometry>
        </mxCell>
        <mxCell id="ko79yBqlg5gSlIgGx1Cm-141" value="" style="endArrow=oval;html=1;rounded=0;endFill=1;" edge="1" parent="1">
          <mxGeometry width="50" height="50" relative="1" as="geometry">
            <mxPoint x="320" y="450" as="sourcePoint" />
            <mxPoint x="320" y="680" as="targetPoint" />
          </mxGeometry>
        </mxCell>
      </root>
    </mxGraphModel>
  </diagram>
</mxfile>
